<svg width="20" height="24" viewBox="0 0 20 24" fill="none" xmlns="http://www.w3.org/2000/svg">
<path d="M11.4871 19C11.3657 19.0005 11.2458 18.9675 11.1361 18.9035C11.0264 18.8394 10.9298 18.746 10.8533 18.63L6.92897 12.63C6.80947 12.451 6.74414 12.2266 6.74414 11.995C6.74414 11.7633 6.80947 11.5389 6.92897 11.36L10.9915 5.35997C11.1294 5.15575 11.3276 5.02733 11.5424 5.00295C11.7573 4.97857 11.9712 5.06023 12.1371 5.22997C12.303 5.39971 12.4074 5.64362 12.4272 5.90805C12.447 6.17247 12.3806 6.43575 12.2427 6.63997L8.61085 12L12.1208 17.36C12.2202 17.5068 12.2833 17.6855 12.3027 17.875C12.3221 18.0646 12.297 18.257 12.2303 18.4295C12.1637 18.6021 12.0582 18.7475 11.9265 18.8486C11.7948 18.9497 11.6423 19.0022 11.4871 19Z" fill="white"/>
</svg>
