<svg width="16" height="16" viewBox="0 0 16 16" fill="none" xmlns="http://www.w3.org/2000/svg">
<path d="M12.6663 6.00001C12.2537 6.00117 11.8515 6.12993 11.515 6.36863C11.1784 6.60734 10.9239 6.94431 10.7863 7.33334H1.99967C1.82286 7.33334 1.65329 7.40358 1.52827 7.5286C1.40325 7.65363 1.33301 7.8232 1.33301 8.00001C1.33301 8.17682 1.40325 8.34639 1.52827 8.47141C1.65329 8.59644 1.82286 8.66667 1.99967 8.66667H10.7863C10.9086 9.01259 11.1237 9.3182 11.4081 9.55006C11.6925 9.78191 12.0351 9.93108 12.3986 9.98123C12.762 10.0314 13.1323 9.98058 13.4688 9.8344C13.8053 9.68821 14.0952 9.45228 14.3066 9.1524C14.518 8.85253 14.6428 8.50028 14.6674 8.13421C14.6921 7.76813 14.6155 7.40234 14.4462 7.07686C14.2768 6.75138 14.0212 6.47875 13.7073 6.28882C13.3934 6.09889 13.0332 5.99898 12.6663 6.00001Z" fill="white"/>
<path d="M1.99967 4.66661H2.78634C2.92648 5.05271 3.18209 5.3863 3.51845 5.62205C3.85481 5.85779 4.25559 5.98426 4.66634 5.98426C5.07709 5.98426 5.47787 5.85779 5.81423 5.62205C6.15059 5.3863 6.40621 5.05271 6.54634 4.66661H13.9997C14.1765 4.66661 14.3461 4.59637 14.4711 4.47135C14.5961 4.34632 14.6663 4.17675 14.6663 3.99994C14.6663 3.82313 14.5961 3.65356 14.4711 3.52854C14.3461 3.40351 14.1765 3.33328 13.9997 3.33328H6.54634C6.40621 2.94717 6.15059 2.61358 5.81423 2.37784C5.47787 2.14209 5.07709 2.01562 4.66634 2.01562C4.25559 2.01563 3.85481 2.14209 3.51845 2.37784C3.18209 2.61358 2.92648 2.94717 2.78634 3.33328H1.99967C1.82286 3.33328 1.65329 3.40351 1.52827 3.52854C1.40325 3.65356 1.33301 3.82313 1.33301 3.99994C1.33301 4.17675 1.40325 4.34632 1.52827 4.47135C1.65329 4.59637 1.82286 4.66661 1.99967 4.66661Z" fill="white"/>
<path d="M13.9997 11.3333H9.21301C9.07287 10.9472 8.81726 10.6136 8.4809 10.3778C8.14454 10.1421 7.74375 10.0156 7.33301 10.0156C6.92226 10.0156 6.52148 10.1421 6.18512 10.3778C5.84876 10.6136 5.59314 10.9472 5.45301 11.3333H1.99967C1.82286 11.3333 1.65329 11.4035 1.52827 11.5285C1.40325 11.6536 1.33301 11.8231 1.33301 11.9999C1.33301 12.1768 1.40325 12.3463 1.52827 12.4713C1.65329 12.5964 1.82286 12.6666 1.99967 12.6666H5.45301C5.59314 13.0527 5.84876 13.3863 6.18512 13.622C6.52148 13.8578 6.92226 13.9843 7.33301 13.9843C7.74375 13.9843 8.14454 13.8578 8.4809 13.622C8.81726 13.3863 9.07287 13.0527 9.21301 12.6666H13.9997C14.1765 12.6666 14.3461 12.5964 14.4711 12.4713C14.5961 12.3463 14.6663 12.1768 14.6663 11.9999C14.6663 11.8231 14.5961 11.6536 14.4711 11.5285C14.3461 11.4035 14.1765 11.3333 13.9997 11.3333Z" fill="white"/>
</svg>
