<svg width="7" height="14" viewBox="0 0 7 14" fill="none" xmlns="http://www.w3.org/2000/svg">
<path d="M5.4871 14C5.36572 14.0005 5.24578 13.9675 5.13611 13.9035C5.02644 13.8394 4.92982 13.746 4.85335 13.63L0.928975 7.62997C0.809471 7.45104 0.744141 7.2266 0.744141 6.99497C0.744141 6.76335 0.809471 6.5389 0.928975 6.35997L4.99147 0.359971C5.12939 0.155754 5.32757 0.0273295 5.54241 0.00294976C5.75726 -0.02143 5.97117 0.060232 6.1371 0.22997C6.30303 0.399709 6.40737 0.64362 6.42718 0.908047C6.44699 1.17247 6.38064 1.43575 6.24273 1.63997L2.61085 6.99997L6.12085 12.36C6.2202 12.5068 6.28332 12.6855 6.30272 12.875C6.32212 13.0646 6.297 13.257 6.23033 13.4295C6.16366 13.6021 6.05823 13.7475 5.92652 13.8486C5.7948 13.9497 5.64231 14.0022 5.4871 14Z" fill="white"/>
</svg>
